<svg class="rich-terminal" viewBox="0 0 506 342.79999999999995" xmlns="http://www.w3.org/2000/svg">
    <!-- Generated with Rich https://www.textualize.io -->
    <style>

    @font-face {
        font-family: "Fira Code";
        src: local("FiraCode-Regular"),
                url("https://cdnjs.cloudflare.com/ajax/libs/firacode/6.2.0/woff2/FiraCode-Regular.woff2") format("woff2"),
                url("https://cdnjs.cloudflare.com/ajax/libs/firacode/6.2.0/woff/FiraCode-Regular.woff") format("woff");
        font-style: normal;
        font-weight: 400;
    }
    @font-face {
        font-family: "Fira Code";
        src: local("FiraCode-Bold"),
                url("https://cdnjs.cloudflare.com/ajax/libs/firacode/6.2.0/woff2/FiraCode-Bold.woff2") format("woff2"),
                url("https://cdnjs.cloudflare.com/ajax/libs/firacode/6.2.0/woff/FiraCode-Bold.woff") format("woff");
        font-style: bold;
        font-weight: 700;
    }

    .terminal-408414632-matrix {
        font-family: Fira Code, monospace;
        font-size: 20px;
        line-height: 24.4px;
        font-variant-east-asian: full-width;
    }

    .terminal-408414632-title {
        font-size: 18px;
        font-weight: bold;
        font-family: arial;
    }

    .terminal-408414632-r1 { fill: #c5c8c6 }
.terminal-408414632-r2 { fill: #e0e0e0 }
.terminal-408414632-r3 { fill: #a3a3a3 }
.terminal-408414632-r4 { fill: #b0b0b0;font-weight: bold }
.terminal-408414632-r5 { fill: #e0e0e0;font-weight: bold }
.terminal-408414632-r6 { fill: #121212 }
.terminal-408414632-r7 { fill: #656565 }
.terminal-408414632-r8 { fill: #797979 }
.terminal-408414632-r9 { fill: #2d2d2d }
.terminal-408414632-r10 { fill: #cccccc }
.terminal-408414632-r11 { fill: #141414;font-weight: bold }
.terminal-408414632-r12 { fill: #0d0d0d }
.terminal-408414632-r13 { fill: #606060 }
.terminal-408414632-r14 { fill: #515151 }
    </style>

    <defs>
    <clipPath id="terminal-408414632-clip-terminal">
      <rect x="0" y="0" width="487.0" height="291.79999999999995" />
    </clipPath>
    <clipPath id="terminal-408414632-line-0">
    <rect x="0" y="1.5" width="488" height="24.65"/>
            </clipPath>
<clipPath id="terminal-408414632-line-1">
    <rect x="0" y="25.9" width="488" height="24.65"/>
            </clipPath>
<clipPath id="terminal-408414632-line-2">
    <rect x="0" y="50.3" width="488" height="24.65"/>
            </clipPath>
<clipPath id="terminal-408414632-line-3">
    <rect x="0" y="74.7" width="488" height="24.65"/>
            </clipPath>
<clipPath id="terminal-408414632-line-4">
    <rect x="0" y="99.1" width="488" height="24.65"/>
            </clipPath>
<clipPath id="terminal-408414632-line-5">
    <rect x="0" y="123.5" width="488" height="24.65"/>
            </clipPath>
<clipPath id="terminal-408414632-line-6">
    <rect x="0" y="147.9" width="488" height="24.65"/>
            </clipPath>
<clipPath id="terminal-408414632-line-7">
    <rect x="0" y="172.3" width="488" height="24.65"/>
            </clipPath>
<clipPath id="terminal-408414632-line-8">
    <rect x="0" y="196.7" width="488" height="24.65"/>
            </clipPath>
<clipPath id="terminal-408414632-line-9">
    <rect x="0" y="221.1" width="488" height="24.65"/>
            </clipPath>
<clipPath id="terminal-408414632-line-10">
    <rect x="0" y="245.5" width="488" height="24.65"/>
            </clipPath>
    </defs>

    <rect fill="#292929" stroke="rgba(255,255,255,0.35)" stroke-width="1" x="1" y="1" width="504" height="340.8" rx="8"/><text class="terminal-408414632-title" fill="#c5c8c6" text-anchor="middle" x="252" y="27">OpenAgent&#160;Add&#160;Provider&#160;40x12</text>
            <g transform="translate(26,22)">
            <circle cx="0" cy="0" r="7" fill="#ff5f57"/>
            <circle cx="22" cy="0" r="7" fill="#febc2e"/>
            <circle cx="44" cy="0" r="7" fill="#28c840"/>
            </g>
        
    <g transform="translate(9, 41)" clip-path="url(#terminal-408414632-clip-terminal)">
    <rect fill="#2d2d2d" x="0" y="1.5" width="12.2" height="24.65" shape-rendering="crispEdges"/><rect fill="#2d2d2d" x="12.2" y="1.5" width="12.2" height="24.65" shape-rendering="crispEdges"/><rect fill="#2d2d2d" x="24.4" y="1.5" width="61" height="24.65" shape-rendering="crispEdges"/><rect fill="#2d2d2d" x="85.4" y="1.5" width="12.2" height="24.65" shape-rendering="crispEdges"/><rect fill="#2d2d2d" x="97.6" y="1.5" width="109.8" height="24.65" shape-rendering="crispEdges"/><rect fill="#2d2d2d" x="207.4" y="1.5" width="36.6" height="24.65" shape-rendering="crispEdges"/><rect fill="#2d2d2d" x="244" y="1.5" width="122" height="24.65" shape-rendering="crispEdges"/><rect fill="#2d2d2d" x="366" y="1.5" width="12.2" height="24.65" shape-rendering="crispEdges"/><rect fill="#2d2d2d" x="378.2" y="1.5" width="0" height="24.65" shape-rendering="crispEdges"/><rect fill="#2d2d2d" x="378.2" y="1.5" width="109.8" height="24.65" shape-rendering="crispEdges"/><rect fill="#121212" x="0" y="25.9" width="12.2" height="24.65" shape-rendering="crispEdges"/><rect fill="#121212" x="12.2" y="25.9" width="146.4" height="24.65" shape-rendering="crispEdges"/><rect fill="#121212" x="158.6" y="25.9" width="329.4" height="24.65" shape-rendering="crispEdges"/><rect fill="#121212" x="0" y="50.3" width="24.4" height="24.65" shape-rendering="crispEdges"/><rect fill="#121212" x="24.4" y="50.3" width="183" height="24.65" shape-rendering="crispEdges"/><rect fill="#121212" x="207.4" y="50.3" width="231.8" height="24.65" shape-rendering="crispEdges"/><rect fill="#282828" x="439.2" y="50.3" width="24.4" height="24.65" shape-rendering="crispEdges"/><rect fill="#121212" x="463.6" y="50.3" width="24.4" height="24.65" shape-rendering="crispEdges"/><rect fill="#121212" x="0" y="74.7" width="24.4" height="24.65" shape-rendering="crispEdges"/><rect fill="#656565" x="24.4" y="74.7" width="12.2" height="24.65" shape-rendering="crispEdges"/><rect fill="#272727" x="36.6" y="74.7" width="390.4" height="24.65" shape-rendering="crispEdges"/><rect fill="#121212" x="427" y="74.7" width="12.2" height="24.65" shape-rendering="crispEdges"/><rect fill="#000000" x="439.2" y="74.7" width="24.4" height="24.65" shape-rendering="crispEdges"/><rect fill="#121212" x="463.6" y="74.7" width="24.4" height="24.65" shape-rendering="crispEdges"/><rect fill="#121212" x="0" y="99.1" width="24.4" height="24.65" shape-rendering="crispEdges"/><rect fill="#656565" x="24.4" y="99.1" width="12.2" height="24.65" shape-rendering="crispEdges"/><rect fill="#272727" x="36.6" y="99.1" width="24.4" height="24.65" shape-rendering="crispEdges"/><rect fill="#e0e0e0" x="61" y="99.1" width="12.2" height="24.65" shape-rendering="crispEdges"/><rect fill="#272727" x="73.2" y="99.1" width="329.4" height="24.65" shape-rendering="crispEdges"/><rect fill="#272727" x="402.6" y="99.1" width="24.4" height="24.65" shape-rendering="crispEdges"/><rect fill="#121212" x="427" y="99.1" width="12.2" height="24.65" shape-rendering="crispEdges"/><rect fill="#000000" x="439.2" y="99.1" width="24.4" height="24.65" shape-rendering="crispEdges"/><rect fill="#121212" x="463.6" y="99.1" width="24.4" height="24.65" shape-rendering="crispEdges"/><rect fill="#121212" x="0" y="123.5" width="24.4" height="24.65" shape-rendering="crispEdges"/><rect fill="#656565" x="24.4" y="123.5" width="12.2" height="24.65" shape-rendering="crispEdges"/><rect fill="#272727" x="36.6" y="123.5" width="390.4" height="24.65" shape-rendering="crispEdges"/><rect fill="#121212" x="427" y="123.5" width="12.2" height="24.65" shape-rendering="crispEdges"/><rect fill="#000000" x="439.2" y="123.5" width="24.4" height="24.65" shape-rendering="crispEdges"/><rect fill="#121212" x="463.6" y="123.5" width="24.4" height="24.65" shape-rendering="crispEdges"/><rect fill="#2d2d2d" x="0" y="147.9" width="12.2" height="24.65" shape-rendering="crispEdges"/><rect fill="#1e1e1e" x="12.2" y="147.9" width="146.4" height="24.65" shape-rendering="crispEdges"/><rect fill="#a1a1a1" x="158.6" y="147.9" width="158.6" height="24.65" shape-rendering="crispEdges"/><rect fill="#1e1e1e" x="317.2" y="147.9" width="158.6" height="24.65" shape-rendering="crispEdges"/><rect fill="#2d2d2d" x="475.8" y="147.9" width="12.2" height="24.65" shape-rendering="crispEdges"/><rect fill="#2d2d2d" x="0" y="172.3" width="12.2" height="24.65" shape-rendering="crispEdges"/><rect fill="#1e1e1e" x="12.2" y="172.3" width="36.6" height="24.65" shape-rendering="crispEdges"/><rect fill="#1e1e1e" x="48.8" y="172.3" width="73.2" height="24.65" shape-rendering="crispEdges"/><rect fill="#1e1e1e" x="122" y="172.3" width="36.6" height="24.65" shape-rendering="crispEdges"/><rect fill="#a1a1a1" x="158.6" y="172.3" width="36.6" height="24.65" shape-rendering="crispEdges"/><rect fill="#a1a1a1" x="195.2" y="172.3" width="73.2" height="24.65" shape-rendering="crispEdges"/><rect fill="#a1a1a1" x="268.4" y="172.3" width="48.8" height="24.65" shape-rendering="crispEdges"/><rect fill="#1e1e1e" x="317.2" y="172.3" width="24.4" height="24.65" shape-rendering="crispEdges"/><rect fill="#1e1e1e" x="341.6" y="172.3" width="97.6" height="24.65" shape-rendering="crispEdges"/><rect fill="#1e1e1e" x="439.2" y="172.3" width="36.6" height="24.65" shape-rendering="crispEdges"/><rect fill="#2d2d2d" x="475.8" y="172.3" width="12.2" height="24.65" shape-rendering="crispEdges"/><rect fill="#2d2d2d" x="0" y="196.7" width="12.2" height="24.65" shape-rendering="crispEdges"/><rect fill="#1e1e1e" x="12.2" y="196.7" width="146.4" height="24.65" shape-rendering="crispEdges"/><rect fill="#a1a1a1" x="158.6" y="196.7" width="12.2" height="24.65" shape-rendering="crispEdges"/><rect fill="#a1a1a1" x="170.8" y="196.7" width="122" height="24.65" shape-rendering="crispEdges"/><rect fill="#a1a1a1" x="292.8" y="196.7" width="24.4" height="24.65" shape-rendering="crispEdges"/><rect fill="#1e1e1e" x="317.2" y="196.7" width="36.6" height="24.65" shape-rendering="crispEdges"/><rect fill="#1e1e1e" x="353.8" y="196.7" width="85.4" height="24.65" shape-rendering="crispEdges"/><rect fill="#1e1e1e" x="439.2" y="196.7" width="36.6" height="24.65" shape-rendering="crispEdges"/><rect fill="#2d2d2d" x="475.8" y="196.7" width="12.2" height="24.65" shape-rendering="crispEdges"/><rect fill="#2d2d2d" x="0" y="221.1" width="12.2" height="24.65" shape-rendering="crispEdges"/><rect fill="#1e1e1e" x="12.2" y="221.1" width="146.4" height="24.65" shape-rendering="crispEdges"/><rect fill="#a1a1a1" x="158.6" y="221.1" width="12.2" height="24.65" shape-rendering="crispEdges"/><rect fill="#a1a1a1" x="170.8" y="221.1" width="122" height="24.65" shape-rendering="crispEdges"/><rect fill="#a1a1a1" x="292.8" y="221.1" width="24.4" height="24.65" shape-rendering="crispEdges"/><rect fill="#1e1e1e" x="317.2" y="221.1" width="158.6" height="24.65" shape-rendering="crispEdges"/><rect fill="#2d2d2d" x="475.8" y="221.1" width="12.2" height="24.65" shape-rendering="crispEdges"/><rect fill="#2d2d2d" x="0" y="245.5" width="158.6" height="24.65" shape-rendering="crispEdges"/><rect fill="#a1a1a1" x="158.6" y="245.5" width="158.6" height="24.65" shape-rendering="crispEdges"/><rect fill="#2d2d2d" x="317.2" y="245.5" width="170.8" height="24.65" shape-rendering="crispEdges"/><rect fill="#2d2d2d" x="0" y="269.9" width="61" height="24.65" shape-rendering="crispEdges"/><rect fill="#2d2d2d" x="61" y="269.9" width="85.4" height="24.65" shape-rendering="crispEdges"/><rect fill="#2d2d2d" x="146.4" y="269.9" width="48.8" height="24.65" shape-rendering="crispEdges"/><rect fill="#2d2d2d" x="195.2" y="269.9" width="61" height="24.65" shape-rendering="crispEdges"/><rect fill="#2d2d2d" x="256.2" y="269.9" width="85.4" height="24.65" shape-rendering="crispEdges"/><rect fill="#2d2d2d" x="341.6" y="269.9" width="12.2" height="24.65" shape-rendering="crispEdges"/><rect fill="#2d2d2d" x="353.8" y="269.9" width="24.4" height="24.65" shape-rendering="crispEdges"/><rect fill="#2d2d2d" x="378.2" y="269.9" width="97.6" height="24.65" shape-rendering="crispEdges"/><rect fill="#2d2d2d" x="475.8" y="269.9" width="12.2" height="24.65" shape-rendering="crispEdges"/>
    <g class="terminal-408414632-matrix">
    <text class="terminal-408414632-r2" x="12.2" y="20" textLength="12.2" clip-path="url(#terminal-408414632-line-0)">⭘</text><text class="terminal-408414632-r2" x="97.6" y="20" textLength="109.8" clip-path="url(#terminal-408414632-line-0)">OpenAgent</text><text class="terminal-408414632-r3" x="207.4" y="20" textLength="36.6" clip-path="url(#terminal-408414632-line-0)">&#160;—&#160;</text><text class="terminal-408414632-r3" x="244" y="20" textLength="122" clip-path="url(#terminal-408414632-line-0)">control&#160;p…</text><text class="terminal-408414632-r1" x="488" y="20" textLength="12.2" clip-path="url(#terminal-408414632-line-0)">
</text><text class="terminal-408414632-r4" x="12.2" y="44.4" textLength="146.4" clip-path="url(#terminal-408414632-line-1)">Add&#160;Provider</text><text class="terminal-408414632-r1" x="488" y="44.4" textLength="12.2" clip-path="url(#terminal-408414632-line-1)">
</text><text class="terminal-408414632-r5" x="24.4" y="68.8" textLength="183" clip-path="url(#terminal-408414632-line-2)">Connection&#160;name</text><text class="terminal-408414632-r1" x="488" y="68.8" textLength="12.2" clip-path="url(#terminal-408414632-line-2)">
</text><text class="terminal-408414632-r6" x="24.4" y="93.2" textLength="12.2" clip-path="url(#terminal-408414632-line-3)">▊</text><text class="terminal-408414632-r7" x="36.6" y="93.2" textLength="390.4" clip-path="url(#terminal-408414632-line-3)">▔▔▔▔▔▔▔▔▔▔▔▔▔▔▔▔▔▔▔▔▔▔▔▔▔▔▔▔▔▔▔▔</text><text class="terminal-408414632-r7" x="427" y="93.2" textLength="12.2" clip-path="url(#terminal-408414632-line-3)">▎</text><text class="terminal-408414632-r1" x="488" y="93.2" textLength="12.2" clip-path="url(#terminal-408414632-line-3)">
</text><text class="terminal-408414632-r6" x="24.4" y="117.6" textLength="12.2" clip-path="url(#terminal-408414632-line-4)">▊</text><text class="terminal-408414632-r6" x="61" y="117.6" textLength="12.2" clip-path="url(#terminal-408414632-line-4)">e</text><text class="terminal-408414632-r8" x="73.2" y="117.6" textLength="329.4" clip-path="url(#terminal-408414632-line-4)">.g.&#160;deepseek-main&#160;(required</text><text class="terminal-408414632-r7" x="427" y="117.6" textLength="12.2" clip-path="url(#terminal-408414632-line-4)">▎</text><text class="terminal-408414632-r1" x="488" y="117.6" textLength="12.2" clip-path="url(#terminal-408414632-line-4)">
</text><text class="terminal-408414632-r6" x="24.4" y="142" textLength="12.2" clip-path="url(#terminal-408414632-line-5)">▊</text><text class="terminal-408414632-r7" x="36.6" y="142" textLength="390.4" clip-path="url(#terminal-408414632-line-5)">▁▁▁▁▁▁▁▁▁▁▁▁▁▁▁▁▁▁▁▁▁▁▁▁▁▁▁▁▁▁▁▁</text><text class="terminal-408414632-r7" x="427" y="142" textLength="12.2" clip-path="url(#terminal-408414632-line-5)">▎</text><text class="terminal-408414632-r1" x="488" y="142" textLength="12.2" clip-path="url(#terminal-408414632-line-5)">
</text><text class="terminal-408414632-r9" x="12.2" y="166.4" textLength="146.4" clip-path="url(#terminal-408414632-line-6)">▔▔▔▔▔▔▔▔▔▔▔▔</text><text class="terminal-408414632-r10" x="158.6" y="166.4" textLength="158.6" clip-path="url(#terminal-408414632-line-6)">▔▔▔▔▔▔▔▔▔▔▔▔▔</text><text class="terminal-408414632-r9" x="317.2" y="166.4" textLength="158.6" clip-path="url(#terminal-408414632-line-6)">▔▔▔▔▔▔▔▔▔▔▔▔▔</text><text class="terminal-408414632-r1" x="488" y="166.4" textLength="12.2" clip-path="url(#terminal-408414632-line-6)">
</text><text class="terminal-408414632-r5" x="48.8" y="190.8" textLength="73.2" clip-path="url(#terminal-408414632-line-7)">&#160;Test&#160;</text><text class="terminal-408414632-r11" x="195.2" y="190.8" textLength="73.2" clip-path="url(#terminal-408414632-line-7)">&#160;Save&#160;</text><text class="terminal-408414632-r5" x="341.6" y="190.8" textLength="97.6" clip-path="url(#terminal-408414632-line-7)">&#160;Cancel&#160;</text><text class="terminal-408414632-r1" x="488" y="190.8" textLength="12.2" clip-path="url(#terminal-408414632-line-7)">
</text><text class="terminal-408414632-r5" x="12.2" y="215.2" textLength="146.4" clip-path="url(#terminal-408414632-line-8)">&#160;Connection&#160;</text><text class="terminal-408414632-r11" x="170.8" y="215.2" textLength="122" clip-path="url(#terminal-408414632-line-8)">&#160;Provider&#160;</text><text class="terminal-408414632-r5" x="353.8" y="215.2" textLength="85.4" clip-path="url(#terminal-408414632-line-8)">&#160;(Esc)&#160;</text><text class="terminal-408414632-r1" x="488" y="215.2" textLength="12.2" clip-path="url(#terminal-408414632-line-8)">
</text><text class="terminal-408414632-r12" x="12.2" y="239.6" textLength="146.4" clip-path="url(#terminal-408414632-line-9)">▁▁▁▁▁▁▁▁▁▁▁▁</text><text class="terminal-408414632-r11" x="170.8" y="239.6" textLength="122" clip-path="url(#terminal-408414632-line-9)">&#160;(Ctrl+S)&#160;</text><text class="terminal-408414632-r12" x="317.2" y="239.6" textLength="158.6" clip-path="url(#terminal-408414632-line-9)">▁▁▁▁▁▁▁▁▁▁▁▁▁</text><text class="terminal-408414632-r1" x="488" y="239.6" textLength="12.2" clip-path="url(#terminal-408414632-line-9)">
</text><text class="terminal-408414632-r13" x="158.6" y="264" textLength="158.6" clip-path="url(#terminal-408414632-line-10)">▁▁▁▁▁▁▁▁▁▁▁▁▁</text><text class="terminal-408414632-r1" x="488" y="264" textLength="12.2" clip-path="url(#terminal-408414632-line-10)">
</text><text class="terminal-408414632-r4" x="0" y="288.4" textLength="61" clip-path="url(#terminal-408414632-line-11)">&#160;esc&#160;</text><text class="terminal-408414632-r2" x="61" y="288.4" textLength="85.4" clip-path="url(#terminal-408414632-line-11)">Cancel&#160;</text><text class="terminal-408414632-r4" x="146.4" y="288.4" textLength="48.8" clip-path="url(#terminal-408414632-line-11)">&#160;^s&#160;</text><text class="terminal-408414632-r2" x="195.2" y="288.4" textLength="61" clip-path="url(#terminal-408414632-line-11)">Save&#160;</text><text class="terminal-408414632-r14" x="341.6" y="288.4" textLength="12.2" clip-path="url(#terminal-408414632-line-11)">▏</text><text class="terminal-408414632-r4" x="353.8" y="288.4" textLength="24.4" clip-path="url(#terminal-408414632-line-11)">^p</text><text class="terminal-408414632-r2" x="378.2" y="288.4" textLength="97.6" clip-path="url(#terminal-408414632-line-11)">&#160;palette</text>
    </g>
    </g>
</svg>

